<svg t="1684479826771" class="icon" viewBox="0 0 1024 1024" version="1.1" xmlns="http://www.w3.org/2000/svg" p-id="5057" width="48" height="48"><path d="M512 85.3l181 181-60.4 60.3L512 206 391.3 326.7 331 266.4 512 85.3zM85.3 512l181-181 60.3 60.4L206 512l120.7 120.7-60.3 60.4L85.3 512z m853.3 0l-181 181-60.3-60.4L818 512 697.3 391.3l60.3-60.4L938.7 512z m-426.7 85.3a85.3 85.3 0 1 1 0-170.7 85.3 85.3 0 0 1 0 170.7z m0 341.3l-181-181 60.4-60.3L512 818l120.7-120.7 60.4 60.3L512 938.7z" p-id="5058" fill="#ffffff"></path></svg>
