<?xml version="1.0" encoding="UTF-8"?>
<svg width="49px" height="20px" viewBox="0 0 49 20" version="1.1" xmlns="http://www.w3.org/2000/svg" xmlns:xlink="http://www.w3.org/1999/xlink">
    <!-- Generator: Sketch 53.2 (72643) - https://sketchapp.com -->
    <title>导航栏logo_白</title>
    <desc>Created with Sketch.</desc>
    <defs>
        <rect id="path-1" x="0" y="0" width="99" height="20"></rect>
        <polygon id="path-3" points="0.0617125145 0.0294318182 11.592406 0.0294318182 11.592406 5.48090909 0.0617125145 5.48090909"></polygon>
    </defs>
    <g id="Symbols" stroke="none" stroke-width="1" fill="none" fill-rule="evenodd">
        <g id="一级导航栏/1920/深色背景白色/登录返回" transform="translate(-304.000000, -16.000000)">
            <g id="Navbar/透明背景白色_1920">
                <g id="Group" transform="translate(304.000000, 16.000000)">
                    <g id="logo/导航栏logo_白">
                        <mask id="mask-2" fill="white">
                            <use xlink:href="#path-1"></use>
                        </mask>
                        <g id="Mask"></g>
                        <g id="logo/Li-brandmark-horizontal-white" mask="url(#mask-2)" fill-rule="evenodd" stroke-width="1">
                            <g id="LI_Single_Line_CNA_NEG_RGB">
                                <path d="M19.1788402,19.6329545 C17.624094,19.6329545 16.1009428,19.6028409 14.5932481,19.2432955 C13.0673692,18.8794318 11.762087,18.2609091 10.525791,17.3492045 C7.98455379,15.4753409 6.54584528,12.9842045 5.08349735,10.3218182 C3.389074,7.23681818 1.694537,4.15181818 0,1.06670455 C4.5422911,1.06670455 9.0845822,1.06670455 13.626987,1.06670455 C13.7922356,1.36738636 17.0135606,7.22715909 17.1691489,7.51011364 C17.6858065,8.45090909 18.1962134,9.25659091 19.0584838,9.95477273 C20.1547617,10.8423864 21.9162392,11.0073864 23.5885006,11.0073864 C25.7860571,11.0073864 24.3351879,11.0072727 26.5327444,11.0072727 C28.1120393,13.8825 29.6913341,16.7577273 31.270629,19.6329545 C26.5404727,19.6329545 23.9089965,19.6329545 19.1788402,19.6329545" id="Fill-1" fill="#000"></path>
                                <polyline id="Fill-3" fill="#000" points="47.7455973 19.6329545 42.9949839 10.9843182 28.3376366 10.9843182 33.08825 19.6329545 47.7455973 19.6329545"></polyline>
                                <polyline id="Fill-4" fill="#000" points="42.2370451 9.60556818 37.5063205 0.99375 22.8489733 0.99375 27.5796978 9.60556818 42.2370451 9.60556818"></polyline>
                            </g>
                        </g>
                    </g>
                </g>
            </g>
        </g>
    </g>
</svg>
